<svg width="512" height="512" viewBox="0 0 512 512" fill="none" xmlns="http://www.w3.org/2000/svg">
  <defs>
    <radialGradient id="bg" cx="0" cy="0" r="1" gradientUnits="userSpaceOnUse" gradientTransform="translate(344 132) rotate(126) scale(438)">
      <stop stop-color="#4B1020"/>
      <stop offset="0.48" stop-color="#19050D"/>
      <stop offset="1" stop-color="#070408"/>
    </radialGradient>
    <linearGradient id="wave" x1="95" y1="323" x2="417" y2="323" gradientUnits="userSpaceOnUse">
      <stop stop-color="#FF315D"/>
      <stop offset="0.52" stop-color="#FFF2DF"/>
      <stop offset="1" stop-color="#C61A43"/>
    </linearGradient>
    <filter id="softGlow" x="28" y="28" width="456" height="456" color-interpolation-filters="sRGB" filterUnits="userSpaceOnUse">
      <feGaussianBlur stdDeviation="18"/>
    </filter>
    <clipPath id="rounded">
      <rect width="512" height="512" rx="104"/>
    </clipPath>
  </defs>
  <g clip-path="url(#rounded)">
    <rect width="512" height="512" fill="url(#bg)"/>
    <path d="M256 53L289 180L423 140L329 239L459 256L329 273L423 372L289 332L256 459L223 332L89 372L183 273L53 256L183 239L89 140L223 180L256 53Z" fill="#7A1230" opacity="0.45" filter="url(#softGlow)"/>
    <path d="M256 67L284 184L407 148L321 241L438 256L321 271L407 364L284 328L256 445L228 328L105 364L191 271L74 256L191 241L105 148L228 184L256 67Z" fill="#F5ECDD"/>
    <path d="M256 111L277 209L365 185L302 251L386 256L302 261L365 327L277 303L256 401L235 303L147 327L210 261L126 256L210 251L147 185L235 209L256 111Z" fill="#2B0611"/>
    <path d="M229 180H283V228H229V180Z" fill="#4A0B1C"/>
    <path d="M229 284H283V332H229V284Z" fill="#4A0B1C"/>
    <path d="M180 229H228V283H180V229Z" fill="#4A0B1C"/>
    <path d="M284 229H332V283H284V229Z" fill="#4A0B1C"/>
    <path d="M100 319C128 283 153 282 178 319C204 358 230 358 256 319C282 280 308 280 334 319C359 356 385 355 412 319" stroke="url(#wave)" stroke-width="28" stroke-linecap="round"/>
    <circle cx="256" cy="319" r="16" fill="#FFF7EA"/>
  </g>
</svg>
